HIERARCHY
ROOT Hips
{
	OFFSET 0.00000 0.00000 0.00000
	CHANNELS 6 Xposition Yposition Zposition Zrotation Yrotation Xrotation 
	JOINT LHipJoint
	{
		OFFSET 0 0 0
		CHANNELS 3 Zrotation Yrotation Xrotation
		JOINT LeftUpLeg
		{
			OFFSET 1.28366 -1.58472 0.87544
			CHANNELS 3 Zrotation Yrotation Xrotation
			JOINT LeftLeg
			{
				OFFSET 2.18587 -6.00562 0.00000
				CHANNELS 3 Zrotation Yrotation Xrotation
				JOINT LeftFoot
				{
					OFFSET 2.39085 -6.56880 0.00000
					CHANNELS 3 Zrotation Yrotation Xrotation
					JOINT LeftToeBase
					{
						OFFSET 0.12003 -0.32979 2.03101
						CHANNELS 3 Zrotation Yrotation Xrotation
						End Site
						{
							OFFSET 0.00000 -0.00000 1.04074
						}
					}
				}
			}
		}
	}
	JOINT RHipJoint
	{
		OFFSET 0 0 0
		CHANNELS 3 Zrotation Yrotation Xrotation
		JOINT RightUpLeg
		{
			OFFSET -1.21795 -1.58472 0.87544
			CHANNELS 3 Zrotation Yrotation Xrotation
			JOINT RightLeg
			{
				OFFSET -2.22714 -6.11902 0.00000
				CHANNELS 3 Zrotation Yrotation Xrotation
				JOINT RightFoot
				{
					OFFSET -2.40306 -6.60235 0.00000
					CHANNELS 3 Zrotation Yrotation Xrotation
					JOINT RightToeBase
					{
						OFFSET -0.15519 -0.42640 1.91430
						CHANNELS 3 Zrotation Yrotation Xrotation
						End Site
						{
							OFFSET -0.00000 -0.00000 0.99082
						}
					}
				}
			}
		}
	}
	JOINT LowerBack
	{
		OFFSET 0 0 0
		CHANNELS 3 Zrotation Yrotation Xrotation
		JOINT Spine
		{
			OFFSET 0.01180 1.76430 -0.06387
			CHANNELS 3 Zrotation Yrotation Xrotation
			JOINT Spine1
			{
				OFFSET -0.00388 1.74651 0.09536
				CHANNELS 3 Zrotation Yrotation Xrotation
				JOINT Neck
				{
					OFFSET 0 0 0
					CHANNELS 3 Zrotation Yrotation Xrotation
					JOINT Neck1
					{
						OFFSET 0.04111 1.46174 0.14397
						CHANNELS 3 Zrotation Yrotation Xrotation
						JOINT Head
						{
							OFFSET 0.00502 1.44580 -0.31711
							CHANNELS 3 Zrotation Yrotation Xrotation
							End Site
							{
								OFFSET -0.00395 1.49251 -0.12327
							}
						}
					}
				}
				JOINT LeftShoulder
				{
					OFFSET 0 0 0
					CHANNELS 3 Zrotation Yrotation Xrotation
					JOINT LeftArm
					{
						OFFSET 2.70917 1.34870 -0.15417
						CHANNELS 3 Zrotation Yrotation Xrotation
						JOINT LeftForeArm
						{
							OFFSET 4.46610 -0.00000 -0.00000
							CHANNELS 3 Zrotation Yrotation Xrotation
							JOINT LeftHand
							{
								OFFSET 3.41414 -0.00000 0.00000
								CHANNELS 3 Zrotation Yrotation Xrotation
								JOINT LeftFingerBase
								{
									OFFSET 0 0 0
									CHANNELS 3 Zrotation Yrotation Xrotation
									JOINT LeftHandIndex1
									{
										OFFSET 0.32830 -0.00000 0.00000
										CHANNELS 3 Zrotation Yrotation Xrotation
										End Site
										{
											OFFSET 0.26468 -0.00000 0.00000
										}
									}
								}
								JOINT LThumb
								{
									OFFSET 0 0 0
									CHANNELS 3 Zrotation Yrotation Xrotation
									End Site
									{
										OFFSET 0.26872 -0.00000 0.26872
									}
								}
							}
						}
					}
				}
				JOINT RightShoulder
				{
					OFFSET 0 0 0
					CHANNELS 3 Zrotation Yrotation Xrotation
					JOINT RightArm
					{
						OFFSET -3.06316 1.13725 -0.10883
						CHANNELS 3 Zrotation Yrotation Xrotation
						JOINT RightForeArm
						{
							OFFSET -4.40431 -0.00000 0.00000
							CHANNELS 3 Zrotation Yrotation Xrotation
							JOINT RightHand
							{
								OFFSET -3.04688 -0.00000 0.00000
								CHANNELS 3 Zrotation Yrotation Xrotation
								JOINT RightFingerBase
								{
									OFFSET 0 0 0
									CHANNELS 3 Zrotation Yrotation Xrotation
									JOINT RightHandIndex1
									{
										OFFSET -0.50049 -0.00000 0.00000
										CHANNELS 3 Zrotation Yrotation Xrotation
										End Site
										{
											OFFSET -0.40351 -0.00000 0.00000
										}
									}
								}
								JOINT RThumb
								{
									OFFSET 0 0 0
									CHANNELS 3 Zrotation Yrotation Xrotation
									End Site
									{
										OFFSET -0.40967 -0.00000 0.40967
									}
								}
							}
						}
					}
				}
			}
		}
	}
}
MOTION
Frames: 10
Frame Time: .0083333
3.2629 14.4198 1.8988 -177.1540 -73.1623 179.5610 0.0000 0.0000 0.0000 -18.8973 23.5823 -28.2812 8.2535 16.3026 53.4707 2.3966 7.4584 -32.6328 0.2435 3.1752 8.7670 0.0000 0.0000 0.0000 9.0960 -9.1932 -51.9671 -9.1571 -16.9078 56.6318 -1.9775 -10.9941 -32.4095 -0.0086 -0.5991 1.6463 0.5962 -0.3921 7.5110 -0.9453 -0.8874 -9.5661 -1.1736 -0.6808 -14.8220 -7.4225 -11.9934 -11.1238 0.0077 -14.9124 7.9248 0.0029 -7.5482 4.7030 -0.0000 -0.0000 0.0000 6.3926 13.3499 19.8269 13.8106 -22.4633 -2.7553 -0.0000 -0.0000 16.9083 -4.8142 9.1579 -0.7680 -7.1250 0.0000 -0.0000 -26.6728 37.7396 5.2246 -0.0000 -0.0000 0.0000 8.4435 10.3158 36.3151 -24.0227 35.1883 -7.7197 0.0000 0.0000 12.5855 -31.4167 27.3259 -15.6630 7.1250 -0.0000 -0.0000 -0.6980 1.2120 -0.7126
3.2754 14.3992 1.8783 -177.4140 -73.4474 179.6150 0.0000 0.0000 0.0000 -18.7279 23.5774 -28.2415 8.3533 16.3730 53.8254 2.4073 7.2690 -32.5891 0.2253 3.0551 8.4323 0.0000 0.0000 0.0000 9.3058 -9.5091 -52.4291 -10.3389 -17.5961 60.6153 -2.0316 -9.9627 -32.0218 -0.0040 -0.4075 1.1197 0.4042 -0.4593 7.8403 -0.9290 -0.9833 -9.3689 -1.0279 -0.6940 -14.7933 -7.4767 -12.0636 -11.1180 0.1121 -15.0175 8.4654 0.0099 -7.6010 4.8874 -0.0000 -0.0000 0.0000 6.5777 13.1388 19.7676 13.8407 -22.5065 -2.7668 -0.0000 -0.0000 16.7221 -5.1184 9.2384 -0.8239 -7.1250 0.0000 -0.0000 -26.9381 37.7866 5.2525 -0.0000 -0.0000 0.0000 8.6448 11.4791 35.7682 -21.8555 32.8134 -6.5074 0.0000 0.0000 12.8568 -29.1266 26.3507 -13.8917 7.1250 -0.0000 -0.0000 0.4819 -0.4259 0.4783
3.2875 14.3784 1.8533 -177.7380 -73.7709 179.7650 0.0000 0.0000 0.0000 -18.5732 23.4850 -28.2138 8.4532 16.4427 54.1792 2.4183 7.1020 -32.5609 0.2097 2.9483 8.1350 0.0000 0.0000 0.0000 9.4791 -9.7484 -52.6797 -11.4907 -18.1669 64.3650 -2.0774 -8.9309 -31.6238 -0.0013 -0.2336 0.6419 0.1774 -0.5264 8.1258 -0.9357 -1.0909 -9.1837 -0.8854 -0.7119 -14.7505 -7.5114 -12.1277 -11.1155 0.2097 -15.1190 8.9814 0.0132 -7.6513 5.0630 0.0000 0.0000 0.0000 6.7934 12.9014 19.6636 13.8673 -22.5447 -2.7770 -0.0000 -0.0000 16.5872 -5.4668 9.3521 -0.8910 -7.1250 0.0000 -0.0000 -27.2498 37.8603 5.2708 0.0000 0.0000 0.0000 8.8938 12.5471 35.1116 -19.9151 30.5399 -5.4881 0.0000 0.0000 12.8688 -26.7522 25.2703 -12.1443 7.1250 -0.0000 -0.0000 1.7389 -2.1278 1.6740
3.2989 14.3579 1.8237 -178.1070 -74.1322 180.0080 0.0000 0.0000 0.0000 -18.4333 23.3102 -28.2103 8.5512 16.5101 54.5248 2.4302 6.9507 -32.5473 0.1977 2.8635 7.8989 0.0000 0.0000 0.0000 9.6327 -9.9080 -52.7167 -12.5647 -18.6193 67.7679 -2.1139 -7.8723 -31.1934 -0.0001 -0.0524 0.1441 -0.0772 -0.5910 8.3502 -0.9639 -1.2051 -9.0108 -0.7497 -0.7331 -14.6831 -7.5301 -12.1885 -11.1093 0.3035 -15.2204 9.4674 0.0144 -7.7008 5.2277 0.0000 0.0000 0.0000 7.0348 12.6320 19.5214 13.8883 -22.5748 -2.7851 -0.0000 -0.0000 16.5427 -5.8014 9.4448 -0.9552 -7.1250 0.0000 -0.0000 -27.5432 37.9153 5.2980 0.0000 0.0000 0.0000 9.1929 13.4957 34.3126 -18.1909 28.4009 -4.6397 0.0000 0.0000 12.6654 -24.3698 24.1066 -10.4820 7.1250 -0.0000 -0.0000 3.0372 -3.8500 2.8304
3.3092 14.3380 1.7895 -178.5040 -74.5320 180.3330 0.0000 0.0000 0.0000 -18.3036 23.0624 -28.2395 8.6463 16.5746 54.8586 2.4423 6.8125 -32.5427 0.1881 2.7931 7.7033 0.0000 0.0000 0.0000 9.7835 -9.9784 -52.5283 -13.5082 -18.9581 70.6969 -2.1460 -6.7520 -30.7419 -0.0004 0.1307 -0.3592 -0.3536 -0.6514 8.5028 -1.0107 -1.3220 -8.8513 -0.6220 -0.7562 -14.5854 -7.5296 -12.2469 -11.0990 0.3828 -15.3220 9.9260 0.0101 -7.7501 5.3808 0.0000 0.0000 0.0000 7.2932 12.3253 19.3509 13.9050 -22.5987 -2.7915 -0.0000 -0.0000 16.6008 -6.1018 9.5020 -1.0110 -7.1250 0.0000 -0.0000 -27.7972 37.9409 5.3378 0.0000 0.0000 0.0000 9.5401 14.3110 33.3404 -16.6725 26.4240 -3.9405 0.0000 0.0000 12.3293 -22.0228 22.8633 -8.9314 7.1250 -0.0000 -0.0000 4.3538 -5.5813 3.9213
3.3180 14.3189 1.7507 -178.8800 -74.9670 180.6930 0.0000 0.0000 0.0000 -18.1655 22.7590 -28.3033 8.7375 16.6358 55.1777 2.4539 6.6761 -32.5367 0.1799 2.7319 7.5332 0.0000 0.0000 0.0000 9.9585 -9.9354 -52.0875 -14.2621 -19.1916 73.0034 -2.1753 -5.5964 -30.3004 -0.0022 0.2997 -0.8234 -0.6413 -0.7057 8.5801 -1.0676 -1.4354 -8.7049 -0.5005 -0.7790 -14.4551 -7.5167 -12.3043 -11.0808 0.4411 -15.4235 10.3567 -0.0007 -7.7999 5.5216 0.0000 -0.0000 0.0000 7.5553 11.9850 19.1701 13.9198 -22.6200 -2.7972 -0.0000 -0.0000 16.7689 -6.3314 9.4940 -1.0485 -7.1250 0.0000 -0.0000 -27.9731 37.9145 5.3993 0.0000 -0.0000 0.0000 9.9247 14.9865 32.1713 -15.3514 24.6334 -3.3711 0.0000 0.0000 11.9821 -19.6793 21.5552 -7.4856 7.1250 -0.0000 -0.0000 5.7131 -7.3142 4.9647
3.3246 14.3008 1.7071 -179.2210 -75.4335 181.0670 0.0000 0.0000 0.0000 -18.0083 22.4227 -28.3963 8.8232 16.6926 55.4768 2.4638 6.5295 -32.5163 0.1716 2.6689 7.3582 0.0000 0.0000 0.0000 10.1779 -9.7607 -51.3650 -14.7649 -19.3298 74.5274 -2.2009 -4.4763 -29.9009 -0.0049 0.4535 -1.2461 -0.9378 -0.7524 8.5868 -1.1293 -1.5413 -8.5724 -0.3819 -0.7994 -14.2961 -7.4958 -12.3570 -11.0549 0.4678 -15.5177 10.7687 -0.0200 -7.8477 5.6520 -0.0000 -0.0000 0.0000 7.8080 11.6089 18.9971 13.9341 -22.6405 -2.8027 -0.0000 -0.0000 17.0156 -6.4703 9.4093 -1.0622 -7.1250 0.0000 -0.0000 -28.0513 37.8280 5.4847 -0.0000 -0.0000 0.0000 10.3344 15.5227 30.8200 -14.2167 23.0436 -2.9124 0.0000 0.0000 11.7363 -17.3302 20.1783 -6.1435 7.1250 -0.0000 -0.0000 7.1228 -9.0552 5.9605
3.3287 14.2848 1.6587 -179.5190 -75.9264 181.4390 0.0000 0.0000 0.0000 -17.8245 22.0806 -28.5060 8.8975 16.7413 55.7350 2.4682 6.3691 -32.4574 0.1608 2.5834 7.1211 0.0000 0.0000 0.0000 10.4569 -9.4318 -50.3345 -14.9655 -19.3811 75.1326 -2.2239 -3.4808 -29.5854 -0.0080 0.5778 -1.5877 -1.2464 -0.7890 8.5342 -1.1914 -1.6357 -8.4562 -0.2600 -0.8150 -14.1186 -7.4775 -12.4018 -11.0118 0.4685 -15.5995 11.1617 -0.0437 -7.8913 5.7716 0.0000 -0.0000 0.0000 8.0412 11.2023 18.8546 13.9577 -22.6743 -2.8118 -0.0000 -0.0000 17.2757 -6.5635 9.3066 -1.0660 -7.1250 0.0000 -0.0000 -28.0872 37.7282 5.5705 0.0000 -0.0000 0.0000 10.7622 15.9203 29.3236 -13.2650 21.6742 -2.5503 0.0000 0.0000 11.6282 -14.8910 18.7356 -4.8819 7.1250 -0.0000 -0.0000 8.6413 -10.8110 6.9487
3.3295 14.2716 1.6051 -179.8000 -76.4461 181.8260 0.0000 0.0000 0.0000 -17.6137 21.7585 -28.6188 8.9553 16.7789 55.9354 2.4653 6.1764 -32.3407 0.1469 2.4698 6.8058 0.0000 0.0000 0.0000 10.7966 -8.9374 -48.9787 -14.8368 -19.3485 74.7447 -2.2490 -2.7116 -29.4124 -0.0110 0.6759 -1.8575 -1.5753 -0.8180 8.4293 -1.2542 -1.7222 -8.3526 -0.1301 -0.8266 -13.9226 -7.4524 -12.4334 -10.9830 0.4291 -15.6587 11.5642 -0.0793 -7.9263 5.8920 -0.0000 -0.0000 0.0000 8.2525 10.7786 18.7585 13.9979 -22.7318 -2.8273 -0.0000 -0.0000 17.4850 -6.6290 9.2098 -1.0656 -7.1250 0.0000 -0.0000 -28.1038 37.6364 5.6458 -0.0000 -0.0000 0.0000 11.2103 16.1925 27.7203 -12.4861 20.5296 -2.2699 0.0000 0.0000 11.6395 -12.2859 17.2421 -3.6934 7.1250 -0.0000 -0.0000 10.3234 -12.5688 7.9629
3.3263 14.2655 1.5469 -180.0990 -76.9868 182.2500 0.0000 0.0000 0.0000 -17.3844 21.4877 -28.7096 8.9895 16.8010 56.0539 2.4537 5.9467 -32.1554 0.1286 2.3120 6.3688 0.0000 0.0000 0.0000 11.1874 -8.3109 -47.3335 -14.4083 -19.2332 73.4475 -2.2616 -2.2703 -29.3122 -0.0167 0.8349 -2.2947 -1.9298 -0.8390 8.2842 -1.3202 -1.8009 -8.2580 0.0080 -0.8338 -13.7117 -7.4165 -12.4450 -10.9914 0.3487 -15.6850 12.0018 -0.1291 -7.9478 6.0247 -0.0000 -0.0000 0.0000 8.4388 10.3479 18.7028 14.0596 -22.8198 -2.8512 -0.0000 -0.0000 17.6018 -6.6950 9.1460 -1.0689 -7.1250 0.0000 -0.0000 -28.1326 37.5747 5.7008 -0.0000 -0.0000 0.0000 11.6879 16.3524 26.0545 -11.8692 19.6082 -2.0582 0.0000 0.0000 11.6837 -9.4516 15.7051 -2.5801 7.1250 -0.0000 -0.0000 12.2156 -14.3180 9.0265
